<?xml version="1.0" encoding="UTF-8"?>
<svg id="_レイヤー_2" data-name="レイヤー 2" xmlns="http://www.w3.org/2000/svg" xmlns:xlink="http://www.w3.org/1999/xlink" viewBox="0 0 455.28 134.6">
  <defs>
    <style>
      .cls-1 {
        fill: #fff;
      }

      .cls-2 {
        fill: url(#_名称未設定グラデーション_101);
      }
    </style>
    <linearGradient id="_名称未設定グラデーション_101" data-name="名称未設定グラデーション 101" x1="0" y1="66.89" x2="409.79" y2="66.89" gradientUnits="userSpaceOnUse">
      <stop offset="0" stop-color="#c17f00"/>
      <stop offset=".35" stop-color="#f3e18b"/>
      <stop offset="1" stop-color="#b98d08"/>
    </linearGradient>
  </defs>
  <g id="_制作レイヤー" data-name="制作レイヤー">
    <g>
      <g>
        <g>
          <path d="M126.81,10.77c-10.36,4.13-17.56,13.42-23.61,22.57-5.9,9.14-15.26,25.96-19,32.6,12.81-9.44,32.1-30.53,52.68-46.46,12.38-9.73,21.3-14.31,27.92-14.31,5.47,0,9.64,2.65,9.64,7.82,.14,3.98-1.73,6.78-2.88,7.96,.86-5.16-1.73-10.18-10.08-10.18-4.61,0-11.37,2.51-19.43,7.96-5.61,3.54-24.47,19.47-28.93,23.75,1.58,3.54,2.59,8.7,.86,19.47-1.73,10.32-3.02,18.29-3.45,26.84-1.01,18.58,4.61,21.98,10.51,21.98,4.75,0,10.94-4.13,15.26-12.98-2.16,10.77-11.37,15.93-19.14,15.93-9.36,0-18.86-4.13-17.7-25.22,.86-17.55,7.63-33.33,8.64-41.45-4.32,3.83-13.82,13.72-27.78,25.07-3.6,5.16-8.92,12.09-13.53,17.11-13.39,14.01-30.08,24.63-45.63,24.93-10.22,.15-21.16-1.77-21.16-11.06,0-7.67,6.91-12.09,13.67-11.95,2.16,0,4.46,.44,6.33,1.33-7.77-.29-11.95,5.6-11.95,10.77,0,6.64,5.33,9.73,13.39,9.44,13.1-.29,25.91-11.36,37.28-26.55,8.49-11.06,15.55-24.34,23.46-37.32,11.23-18.58,24.76-32.45,42.03-38.05-10.51,.74-30.51-6.64-46.49-6.64-11.23,0-25.48,6.49-25.48,18.58,0,5.46,3.02,9.14,7.92,9.59,1.44,.29,3.45,.15,5.18-.74-1.44,2.95-5.04,4.57-8.49,4.57-5.33,0-10.36-2.51-10.36-9.44s5.47-13.27,11.95-17.99C65.06,3.83,74.27,0,83.48,0c16.26,0,32.53,8.55,43.9,8.55,2.59,0,4.17-.74,4.89-1.33,.14,2.06-2.88,3.25-5.47,3.54Z"/>
          <path d="M158.91,92.77c3.02-3.24,8.78-11.36,7.92-16.37,.43,.89,.86,1.62,.86,3.1,0,4.13-2.45,10.03-7.48,15.04-5.61,5.31-11.8,8.11-18.28,8.11-7.63,0-13.24-3.69-13.24-12.54,0-7.52,4.03-19.17,12.81-28.76,9.93-10.91,21.45-15.19,29.51-15.19,5.61,0,9.21,2.95,9.21,7.52,0,9.73-9.79,17.4-22.45,17.4-5.04,0-8.06-2.06-9.07-3.69-7.34,10.77-11.23,20.94-11.23,26.84,0,3.98,1.87,6.78,6.33,6.78s10.08-3.1,15.11-8.26Zm12.95-45.13c-5.04,0-10.51,5.01-14.83,9.44-2.88,2.8-5.76,6.78-7.77,9.59,.58,1.03,3.74,2.8,7.05,2.95,10.08,.15,18.71-12.24,18.71-18.58,0-1.92-1.01-3.39-3.17-3.39Z"/>
          <path d="M188.85,113.72c5.61-9.29,12.67-21.98,17.13-30.09,.29-.44,0-.74-.29-.29-6.76,9-17.7,19.17-26.77,19.17-4.17,0-8.2-2.21-8.2-7.67,0-4.87,2.88-10.91,8.64-19.62,8.35-12.68,12.09-18.88,12.09-22.12,0-1.18-.72-2.21-1.87-2.21-2.73,0-7.2,3.1-11.66,10.62,2.45-7.96,9.64-14.45,16.26-14.45,4.03,0,6.91,2.21,6.91,5.9-.14,6.05-3.74,12.39-12.52,25.52-5.76,8.41-9.36,15.19-9.36,18.29,0,2.21,1.3,3.1,3.02,3.1,5.04,0,16.26-8.26,24.47-20.21,3.31-4.72,7.92-11.65,11.95-18.88,1.87-3.54,3.02-6.34,3.02-8.26,0-1.03-.72-1.62-1.58-1.62-1.15,0-2.3,.59-3.31,1.62,1.87-3.1,4.46-5.16,7.77-5.16,3.74,0,5.9,2.06,5.9,5.6,0,4.28-3.74,11.5-8.92,20.94-6.76,12.39-12.38,22.57-17.99,31.42-7.92,12.68-20.15,28.17-36.42,28.47-6.91,.15-13.24-1.77-13.24-7.52,.14-4.87,4.89-8.11,10.08-8.11,1.73,0,3.17,.44,4.03,.89-3.74,.74-6.19,4.57-6.19,7.96,0,3.83,2.16,5.6,6.33,5.46,2.59,0,9.79-.44,20.73-18.73Z"/>
          <path d="M275.78,53.39c0-1.62-1.01-3.1-3.31-3.1-5.61,0-14.25,6.93-22.89,18.14-7.2,9.14-11.8,17.11-14.54,22.57-2.73,5.31-4.46,10.03-3.89,11.65-3.31-.44-5.76-3.1-5.76-7.23,0-4.72,2.45-11.21,8.2-20.35,6.91-11.06,11.08-18.44,11.08-21.68,0-1.48-.86-2.36-2.3-2.36-3.6,0-7.48,4.13-11.66,9.88,2.45-6.64,9.36-13.86,16.98-13.86,4.32,0,6.48,2.65,6.48,6.05,0,4.42-2.73,9.73-5.18,13.13-.43,.74,0,.89,.43,.44,6.62-8.7,16.55-19.47,26.05-19.47,5.18,0,8.64,3.24,8.64,7.96,0,5.46-3.02,10.91-10.22,21.24-6.91,9.88-10.51,16.37-10.51,20.35,0,2.06,1.15,3.39,3.31,3.39,2.88,0,8.06-3.25,12.81-8.85,4.32-5.16,6.76-8.85,9.5-14.01-1.3,4.87-4.32,10.03-8.49,15.04-5.04,5.9-11.08,10.47-17.13,10.47-5.33,0-8.35-3.1-8.35-8.26,0-6.05,3.74-13.27,10.94-23.6,5.47-7.82,9.79-13.42,9.79-17.55Z"/>
          <path d="M323.86,80.53c-9.21,15.04-20.87,22.12-28.93,22.12-6.48,0-12.38-3.54-12.38-13.72,0-6.49,2.88-16.37,9.79-25.22,8.06-10.18,19.29-17.55,29.51-17.55,6.48,0,9.93,4.13,9.93,10.62,0,5.46-1.58,13.27-7.92,23.75Zm-.86-32.89c-7.34,0-15.83,11.5-21.88,21.24-4.32,6.93-10.51,18.29-10.51,25.96,0,5.01,2.59,6.34,5.18,6.34,5.18,0,13.96-9.59,21.59-22.27,6.05-10.47,10.08-20.65,10.08-25.22,0-3.98-1.58-6.05-4.46-6.05Z"/>
          <path d="M329.47,94.54c-.29-4.28,1.15-9.44,4.32-15.93,2.88-5.75,8.35-14.75,14.68-24.19h-8.35c-1.44,0-1.73-.44-1.44-1.03,.29-.89,1.73-.74,3.6-.74h7.48c2.16-3.39,6.19-9.44,8.2-12.24,4.61-6.64,5.9-7.67,8.21-7.67h3.45c4.75,0,6.48-6.34,8.78-6.34-5.04,6.49-15.26,22.12-17.7,26.25h5.76c1.58,0,2.3,.3,2.16,.89-.14,.74-.72,.88-3.45,.88h-5.61c-8.06,11.65-14.97,23.75-18.86,31.56-1.58,3.24-2.73,6.64-2.73,9.59,0,2.65,1.3,4.72,4.46,4.72,3.89,0,8.92-3.39,13.67-9,4.32-5.16,6.77-8.85,9.5-14.01-1.29,4.87-4.32,10.03-8.49,15.04-5.18,6.19-11.08,10.47-17.7,10.47-6.19,0-9.5-3.1-9.93-8.26Z"/>
          <path d="M388.49,92.77c3.02-3.24,8.78-11.36,7.92-16.37,.43,.89,.86,1.62,.86,3.1,0,4.13-2.45,10.03-7.48,15.04-5.61,5.31-11.8,8.11-18.28,8.11-7.63,0-13.24-3.69-13.24-12.54,0-7.52,4.03-19.17,12.81-28.76,9.93-10.91,21.45-15.19,29.51-15.19,5.61,0,9.21,2.95,9.21,7.52,0,9.73-9.79,17.4-22.45,17.4-5.04,0-8.06-2.06-9.07-3.69-7.34,10.77-11.23,20.94-11.23,26.84,0,3.98,1.87,6.78,6.33,6.78s10.08-3.1,15.11-8.26Zm12.96-45.13c-5.04,0-10.51,5.01-14.83,9.44-2.88,2.8-5.76,6.78-7.77,9.59,.58,1.03,3.74,2.8,7.05,2.95,10.08,.15,18.71-12.24,18.71-18.58,0-1.92-1.01-3.39-3.17-3.39Z"/>
        </g>
        <g>
          <path class="cls-2" d="M126.81,10.77c-10.36,4.13-17.56,13.42-23.61,22.57-5.9,9.14-15.26,25.96-19,32.6,12.81-9.44,32.1-30.53,52.68-46.46,12.38-9.73,21.3-14.31,27.92-14.31,5.47,0,9.64,2.65,9.64,7.82,.14,3.98-1.73,6.78-2.88,7.96,.86-5.16-1.73-10.18-10.08-10.18-4.61,0-11.37,2.51-19.43,7.96-5.61,3.54-24.47,19.47-28.93,23.75,1.58,3.54,2.59,8.7,.86,19.47-1.73,10.32-3.02,18.29-3.45,26.84-1.01,18.58,4.61,21.98,10.51,21.98,4.75,0,10.94-4.13,15.26-12.98-2.16,10.77-11.37,15.93-19.14,15.93-9.36,0-18.86-4.13-17.7-25.22,.86-17.55,7.63-33.33,8.64-41.45-4.32,3.83-13.82,13.72-27.78,25.07-3.6,5.16-8.92,12.09-13.53,17.11-13.39,14.01-30.08,24.63-45.63,24.93-10.22,.15-21.16-1.77-21.16-11.06,0-7.67,6.91-12.09,13.67-11.95,2.16,0,4.46,.44,6.33,1.33-7.77-.29-11.95,5.6-11.95,10.77,0,6.64,5.33,9.73,13.39,9.44,13.1-.29,25.91-11.36,37.28-26.55,8.49-11.06,15.55-24.34,23.46-37.32,11.23-18.58,24.76-32.45,42.03-38.05-10.51,.74-30.51-6.64-46.49-6.64-11.23,0-25.48,6.49-25.48,18.58,0,5.46,3.02,9.14,7.92,9.59,1.44,.29,3.45,.15,5.18-.74-1.44,2.95-5.04,4.57-8.49,4.57-5.33,0-10.36-2.51-10.36-9.44s5.47-13.27,11.95-17.99C65.06,3.83,74.27,0,83.48,0c16.26,0,32.53,8.55,43.9,8.55,2.59,0,4.17-.74,4.89-1.33,.14,2.06-2.88,3.25-5.47,3.54Z"/>
          <path class="cls-2" d="M158.91,92.77c3.02-3.24,8.78-11.36,7.92-16.37,.43,.89,.86,1.62,.86,3.1,0,4.13-2.45,10.03-7.48,15.04-5.61,5.31-11.8,8.11-18.28,8.11-7.63,0-13.24-3.69-13.24-12.54,0-7.52,4.03-19.17,12.81-28.76,9.93-10.91,21.45-15.19,29.51-15.19,5.61,0,9.21,2.95,9.21,7.52,0,9.73-9.79,17.4-22.45,17.4-5.04,0-8.06-2.06-9.07-3.69-7.34,10.77-11.23,20.94-11.23,26.84,0,3.98,1.87,6.78,6.33,6.78s10.08-3.1,15.11-8.26Zm12.95-45.13c-5.04,0-10.51,5.01-14.83,9.44-2.88,2.8-5.76,6.78-7.77,9.59,.58,1.03,3.74,2.8,7.05,2.95,10.08,.15,18.71-12.24,18.71-18.58,0-1.92-1.01-3.39-3.17-3.39Z"/>
          <path class="cls-2" d="M188.85,113.72c5.61-9.29,12.67-21.98,17.13-30.09,.29-.44,0-.74-.29-.29-6.76,9-17.7,19.17-26.77,19.17-4.17,0-8.2-2.21-8.2-7.67,0-4.87,2.88-10.91,8.64-19.62,8.35-12.68,12.09-18.88,12.09-22.12,0-1.18-.72-2.21-1.87-2.21-2.73,0-7.2,3.1-11.66,10.62,2.45-7.96,9.64-14.45,16.26-14.45,4.03,0,6.91,2.21,6.91,5.9-.14,6.05-3.74,12.39-12.52,25.52-5.76,8.41-9.36,15.19-9.36,18.29,0,2.21,1.3,3.1,3.02,3.1,5.04,0,16.26-8.26,24.47-20.21,3.31-4.72,7.92-11.65,11.95-18.88,1.87-3.54,3.02-6.34,3.02-8.26,0-1.03-.72-1.62-1.58-1.62-1.15,0-2.3,.59-3.31,1.62,1.87-3.1,4.46-5.16,7.77-5.16,3.74,0,5.9,2.06,5.9,5.6,0,4.28-3.74,11.5-8.92,20.94-6.76,12.39-12.38,22.57-17.99,31.42-7.92,12.68-20.15,28.17-36.42,28.47-6.91,.15-13.24-1.77-13.24-7.52,.14-4.87,4.89-8.11,10.08-8.11,1.73,0,3.17,.44,4.03,.89-3.74,.74-6.19,4.57-6.19,7.96,0,3.83,2.16,5.6,6.33,5.46,2.59,0,9.79-.44,20.73-18.73Z"/>
          <path class="cls-2" d="M275.78,53.39c0-1.62-1.01-3.1-3.31-3.1-5.61,0-14.25,6.93-22.89,18.14-7.2,9.14-11.8,17.11-14.54,22.57-2.73,5.31-4.46,10.03-3.89,11.65-3.31-.44-5.76-3.1-5.76-7.23,0-4.72,2.45-11.21,8.2-20.35,6.91-11.06,11.08-18.44,11.08-21.68,0-1.48-.86-2.36-2.3-2.36-3.6,0-7.48,4.13-11.66,9.88,2.45-6.64,9.36-13.86,16.98-13.86,4.32,0,6.48,2.65,6.48,6.05,0,4.42-2.73,9.73-5.18,13.13-.43,.74,0,.89,.43,.44,6.62-8.7,16.55-19.47,26.05-19.47,5.18,0,8.64,3.24,8.64,7.96,0,5.46-3.02,10.91-10.22,21.24-6.91,9.88-10.51,16.37-10.51,20.35,0,2.06,1.15,3.39,3.31,3.39,2.88,0,8.06-3.25,12.81-8.85,4.32-5.16,6.76-8.85,9.5-14.01-1.3,4.87-4.32,10.03-8.49,15.04-5.04,5.9-11.08,10.47-17.13,10.47-5.33,0-8.35-3.1-8.35-8.26,0-6.05,3.74-13.27,10.94-23.6,5.47-7.82,9.79-13.42,9.79-17.55Z"/>
          <path class="cls-2" d="M323.86,80.53c-9.21,15.04-20.87,22.12-28.93,22.12-6.48,0-12.38-3.54-12.38-13.72,0-6.49,2.88-16.37,9.79-25.22,8.06-10.18,19.29-17.55,29.51-17.55,6.48,0,9.93,4.13,9.93,10.62,0,5.46-1.58,13.27-7.92,23.75Zm-.86-32.89c-7.34,0-15.83,11.5-21.88,21.24-4.32,6.93-10.51,18.29-10.51,25.96,0,5.01,2.59,6.34,5.18,6.34,5.18,0,13.96-9.59,21.59-22.27,6.05-10.47,10.08-20.65,10.08-25.22,0-3.98-1.58-6.05-4.46-6.05Z"/>
          <path class="cls-2" d="M329.47,94.54c-.29-4.28,1.15-9.44,4.32-15.93,2.88-5.75,8.35-14.75,14.68-24.19h-8.35c-1.44,0-1.73-.44-1.44-1.03,.29-.89,1.73-.74,3.6-.74h7.48c2.16-3.39,6.19-9.44,8.2-12.24,4.61-6.64,5.9-7.67,8.21-7.67h3.45c4.75,0,6.48-6.34,8.78-6.34-5.04,6.49-15.26,22.12-17.7,26.25h5.76c1.58,0,2.3,.3,2.16,.89-.14,.74-.72,.88-3.45,.88h-5.61c-8.06,11.65-14.97,23.75-18.86,31.56-1.58,3.24-2.73,6.64-2.73,9.59,0,2.65,1.3,4.72,4.46,4.72,3.89,0,8.92-3.39,13.67-9,4.32-5.16,6.77-8.85,9.5-14.01-1.29,4.87-4.32,10.03-8.49,15.04-5.18,6.19-11.08,10.47-17.7,10.47-6.19,0-9.5-3.1-9.93-8.26Z"/>
          <path class="cls-2" d="M388.49,92.77c3.02-3.24,8.78-11.36,7.92-16.37,.43,.89,.86,1.62,.86,3.1,0,4.13-2.45,10.03-7.48,15.04-5.61,5.31-11.8,8.11-18.28,8.11-7.63,0-13.24-3.69-13.24-12.54,0-7.52,4.03-19.17,12.81-28.76,9.93-10.91,21.45-15.19,29.51-15.19,5.61,0,9.21,2.95,9.21,7.52,0,9.73-9.79,17.4-22.45,17.4-5.04,0-8.06-2.06-9.07-3.69-7.34,10.77-11.23,20.94-11.23,26.84,0,3.98,1.87,6.78,6.33,6.78s10.08-3.1,15.11-8.26Zm12.96-45.13c-5.04,0-10.51,5.01-14.83,9.44-2.88,2.8-5.76,6.78-7.77,9.59,.58,1.03,3.74,2.8,7.05,2.95,10.08,.15,18.71-12.24,18.71-18.58,0-1.92-1.01-3.39-3.17-3.39Z"/>
        </g>
      </g>
      <g>
        <g>
          <path d="M198.68,15.33V31.88c0,.41,.06,.69,.19,.87,.12,.17,.37,.31,.74,.41v.47h-4.12v-.47c.37-.1,.61-.23,.74-.4,.12-.17,.19-.46,.19-.87V15.33h-6.68c-.4,0-.69,.06-.86,.19s-.3,.38-.38,.76h-.46v-3.82h.46c.09,.38,.21,.63,.38,.76,.17,.13,.46,.19,.86,.19h15.63c.4,0,.69-.06,.86-.19,.17-.13,.3-.38,.38-.76h.46v3.82h-.46c-.09-.38-.21-.63-.38-.76-.17-.13-.46-.19-.86-.19h-6.68Z"/>
          <path d="M222.78,25.89h-10.68v6.06c0,.4,.06,.69,.19,.87,.12,.17,.37,.31,.74,.41v.4h-3.92v-.4c.37-.1,.61-.23,.74-.41,.12-.17,.19-.46,.19-.87v-13.24c0-.41-.06-.71-.19-.87-.13-.17-.37-.3-.74-.4v-.4h3.92v.4c-.37,.1-.61,.23-.74,.4-.13,.17-.19,.46-.19,.87v5.57h10.68v-5.57c0-.41-.06-.71-.19-.87-.13-.17-.37-.3-.74-.4v-.4h3.92v.4c-.37,.1-.61,.23-.74,.41-.13,.17-.19,.46-.19,.87v13.24c0,.4,.06,.69,.19,.87,.12,.17,.37,.31,.74,.41v.4h-3.92v-.4c.37-.1,.61-.23,.74-.41,.12-.17,.19-.46,.19-.87v-6.06Z"/>
          <path d="M232.24,25.86v6.15h10c.4,0,.69-.06,.86-.19,.17-.13,.3-.38,.38-.76h.4v3.51h-.4c-.09-.38-.21-.63-.38-.76s-.45-.19-.85-.19h-13.01v-.4c.38-.1,.62-.23,.74-.41s.18-.46,.18-.87v-13.24c0-.41-.06-.71-.19-.87-.13-.17-.37-.3-.74-.4v-.4h12.91c.4,0,.69-.06,.85-.19,.16-.13,.29-.38,.39-.76h.39v3.51h-.39c-.1-.38-.23-.63-.39-.76-.16-.13-.45-.19-.85-.19h-9.92v5.6h6.32c.4,0,.69-.06,.85-.19,.16-.13,.29-.38,.39-.76h.39v3.51h-.39c-.1-.38-.23-.63-.4-.76s-.45-.19-.85-.19h-6.32Z"/>
        </g>
        <g>
          <path class="cls-1" d="M198.68,15.33V31.88c0,.41,.06,.69,.19,.87,.12,.17,.37,.31,.74,.41v.47h-4.12v-.47c.37-.1,.61-.23,.74-.4,.12-.17,.19-.46,.19-.87V15.33h-6.68c-.4,0-.69,.06-.86,.19s-.3,.38-.38,.76h-.46v-3.82h.46c.09,.38,.21,.63,.38,.76,.17,.13,.46,.19,.86,.19h15.63c.4,0,.69-.06,.86-.19,.17-.13,.3-.38,.38-.76h.46v3.82h-.46c-.09-.38-.21-.63-.38-.76-.17-.13-.46-.19-.86-.19h-6.68Z"/>
          <path class="cls-1" d="M222.78,25.89h-10.68v6.06c0,.4,.06,.69,.19,.87,.12,.17,.37,.31,.74,.41v.4h-3.92v-.4c.37-.1,.61-.23,.74-.41,.12-.17,.19-.46,.19-.87v-13.24c0-.41-.06-.71-.19-.87-.13-.17-.37-.3-.74-.4v-.4h3.92v.4c-.37,.1-.61,.23-.74,.4-.13,.17-.19,.46-.19,.87v5.57h10.68v-5.57c0-.41-.06-.71-.19-.87-.13-.17-.37-.3-.74-.4v-.4h3.92v.4c-.37,.1-.61,.23-.74,.41-.13,.17-.19,.46-.19,.87v13.24c0,.4,.06,.69,.19,.87,.12,.17,.37,.31,.74,.41v.4h-3.92v-.4c.37-.1,.61-.23,.74-.41,.12-.17,.19-.46,.19-.87v-6.06Z"/>
          <path class="cls-1" d="M232.24,25.86v6.15h10c.4,0,.69-.06,.86-.19,.17-.13,.3-.38,.38-.76h.4v3.51h-.4c-.09-.38-.21-.63-.38-.76s-.45-.19-.85-.19h-13.01v-.4c.38-.1,.62-.23,.74-.41s.18-.46,.18-.87v-13.24c0-.41-.06-.71-.19-.87-.13-.17-.37-.3-.74-.4v-.4h12.91c.4,0,.69-.06,.85-.19,.16-.13,.29-.38,.39-.76h.39v3.51h-.39c-.1-.38-.23-.63-.39-.76-.16-.13-.45-.19-.85-.19h-9.92v5.6h6.32c.4,0,.69-.06,.85-.19,.16-.13,.29-.38,.39-.76h.39v3.51h-.39c-.1-.38-.23-.63-.4-.76s-.45-.19-.85-.19h-6.32Z"/>
        </g>
      </g>
      <g>
        <g>
          <path d="M233.36,131.66c-.18,.53-.26,.88-.26,1.06,0,.35,.18,.48,.73,.64v.42h-4.17v-.42c.49-.08,.7-.27,.7-.61,0-.19-.1-.58-.29-1.09l-4.61-13.04c-.67-1.83-.8-2.02-1.61-2.12v-.42h4.04v.42c-.47,.05-.75,.29-.75,.64,0,.21,.03,.32,.34,1.22l4.3,12.51,4.27-12.51q.36-1.09,.36-1.27c0-.29-.23-.5-.73-.58v-.42h4.4v.42c-.54,.13-.73,.29-.73,.66,0,.16,.03,.21,.34,1.19l4.2,12.51,4.15-12.51c.23-.72,.31-1.01,.31-1.22,0-.4-.18-.53-.7-.64v-.42h3.78v.42c-.8,.13-1.04,.45-1.61,2.12l-4.4,13.04c-.18,.5-.26,.85-.26,1.01,0,.35,.23,.58,.73,.69v.42h-4.12v-.42c.52-.11,.73-.32,.73-.69q0-.16-.26-.9l-4.51-13.04-4.38,12.93Z"/>
          <path d="M256,133.78h-3.42v-.35c.65-.19,.8-.4,.8-1.12v-11.6c0-.72-.16-.93-.8-1.11v-.35h3.42v.35c-.65,.19-.8,.4-.8,1.11v11.6c0,.72,.16,.93,.8,1.12v.35Z"/>
          <path d="M261.36,132.32c0,.72,.16,.93,.8,1.12v.35h-3.11v-.35c.65-.19,.8-.4,.8-1.12v-11.6c0-.72-.16-.93-.8-1.11v-.35h4.59v.35c-.44,.16-.65,.35-.65,.66,0,.27,.16,.56,.49,.96l8.37,9.58v-10.09c0-.72-.16-.93-.8-1.11v-.35h3.11v.35c-.65,.19-.8,.4-.8,1.11v11.6c0,.72,.16,.93,.8,1.12v.35h-3.71v-.35c.52-.13,.67-.24,.67-.53,0-.24-.05-.35-.62-.98l-9.15-10.38v10.78Z"/>
          <path d="M277.19,133.44c.65-.19,.8-.4,.8-1.12v-11.6c0-.72-.16-.93-.8-1.11v-.35h7.15c2.88,0,4.4,.45,5.67,1.67,1.35,1.3,2.2,3.42,2.2,5.58s-.85,4.3-2.2,5.6c-1.29,1.22-2.8,1.67-5.67,1.67h-7.15v-.35Zm7.05-1.06c2.49,0,3.78-.45,4.74-1.62,.85-1.01,1.35-2.52,1.35-4.25s-.49-3.21-1.35-4.25c-.96-1.17-2.25-1.59-4.74-1.59h-4.43v11.71h4.43Z"/>
          <path d="M318.97,118.2c1.94,1.7,3.01,4.12,3.01,6.85,0,2.47-1.14,4.96-3.01,6.61-1.84,1.62-4.33,2.44-7.33,2.44s-5.47-.82-7.31-2.44c-1.92-1.7-3.01-4.14-3.01-6.74s1.11-5.1,3.01-6.72,4.35-2.44,7.28-2.44,5.49,.82,7.36,2.44Zm-15.57,6.72c0,2.07,.7,3.8,2.07,5.18,1.53,1.49,3.55,2.23,6.17,2.23s4.69-.74,6.19-2.23c1.35-1.35,2.07-3.11,2.07-5.07,0-4.57-3.24-7.49-8.29-7.49s-8.21,2.95-8.21,7.38Z"/>
          <path d="M327.6,132.32c0,.72,.16,.93,.8,1.12v.35h-3.42v-.35c.65-.19,.8-.4,.8-1.12v-11.6c0-.72-.16-.93-.8-1.11v-.35h8.39c1.94,0,3.03,.24,3.91,.9,.96,.69,1.48,1.81,1.48,3.11,0,2.23-1.4,3.56-4.04,3.8l3.58,5.79c.29,.45,.42,.53,1.01,.61v.32h-3.5v-.35c.34-.08,.49-.16,.49-.32,0-.11-.1-.35-.28-.64l-3.26-5.28h-5.16v5.12Zm5.39-6.53c1.74,0,2.44-.11,3.06-.45,.62-.37,.98-1.09,.98-1.99,0-.85-.34-1.62-.93-2.04-.62-.45-1.42-.64-2.9-.64h-5.6v5.12h5.39Z"/>
          <path d="M354.9,123.11l-.31-.19c.08-.24,.1-.4,.1-.5,0-.19-.18-.4-.52-.61-1.27-.85-3.03-1.35-4.77-1.35-3.81,0-6.53,2.5-6.53,5.97s2.75,6.16,6.45,6.16c1.74,0,3.5-.61,4.79-1.65,.54-.42,.8-.74,.8-.96,0-.11-.1-.42-.23-.64l.29-.21,2,2.6-.26,.24c-.34-.29-.52-.4-.65-.4-.08,0-.16,.05-.31,.16-2.05,1.65-4.04,2.36-6.61,2.36-4.77,0-8.16-3.16-8.16-7.62s3.47-7.54,8.42-7.54c2.1,0,3.86,.48,5.8,1.54,.18,.11,.26,.13,.36,.13,.21,0,.34-.08,.6-.45l.31,.19-1.58,2.76Z"/>
          <path d="M361.66,127.01v5.31c0,.72,.16,.93,.8,1.12v.35h-3.42v-.35c.65-.19,.8-.4,.8-1.12v-11.6c0-.72-.16-.93-.8-1.11v-.35h3.42v.35c-.65,.19-.8,.4-.8,1.11v4.89h9.33v-4.89c0-.72-.16-.93-.8-1.11v-.35h3.42v.35c-.65,.19-.8,.4-.8,1.11v11.6c0,.72,.16,.93,.8,1.12v.35h-3.42v-.35c.65-.19,.8-.4,.8-1.12v-5.31h-9.33Z"/>
          <path d="M379.27,132.37h8.76c.72,0,.93-.16,1.09-.82h.36v3.05h-.36c-.16-.66-.36-.82-1.09-.82h-11.38v-.35c.65-.19,.8-.4,.8-1.12v-11.6c0-.72-.16-.93-.8-1.11v-.35h11.3c.7,0,.91-.16,1.09-.82h.34v3.05h-.34c-.18-.66-.39-.82-1.09-.82h-8.68v4.91h5.54c.7,0,.91-.16,1.09-.82h.34v3.05h-.34c-.18-.66-.39-.82-1.09-.82h-5.54v5.39Z"/>
          <path d="M404.3,122.84l-.31-.16c.05-.35,.05-.4,.05-.5,0-.27-.18-.42-.83-.77-1.06-.58-2.7-.96-4.22-.96-2.88,0-4.82,1.19-4.82,2.92,0,.85,.52,1.57,1.3,1.83,.8,.29,1.22,.32,4.27,.42,2.54,.11,3.63,.29,4.56,.85,.98,.56,1.61,1.73,1.61,3,0,2.79-2.64,4.62-6.71,4.62-1.63,0-3-.29-4.59-.96-.62-.24-1.58-.72-1.92-.9-.16-.11-.23-.13-.31-.13-.16,0-.23,.05-.57,.48l-.29-.21,1.61-2.76,.31,.19c-.03,.08-.05,.19-.08,.21-.03,.13-.05,.24-.05,.32,0,.27,.36,.58,1.29,1.06,1.45,.8,2.95,1.19,4.51,1.19,3.06,0,5.05-1.19,5.05-3.03,0-.82-.49-1.54-1.24-1.81-.7-.27-1.19-.32-3.58-.42-2.77-.11-3.6-.21-4.66-.61-1.4-.53-2.25-1.75-2.25-3.29,0-2.71,2.64-4.49,6.66-4.49,1.92,0,3.42,.35,5.34,1.22,.34,.16,.39,.19,.47,.19,.13,0,.29-.16,.47-.5l.31,.16-1.37,2.84Z"/>
          <path d="M415.31,132.32c0,.72,.16,.93,.8,1.12v.35h-3.42v-.35c.65-.19,.8-.4,.8-1.12v-11.58h-4.61c-.7,0-.91,.16-1.09,.82h-.34v-3.05h.34c.18,.66,.39,.82,1.09,.82h11.06c.7,0,.91-.16,1.09-.82h.34v3.05h-.34c-.18-.66-.39-.82-1.09-.82h-4.64v11.58Z"/>
          <path d="M426,132.32c0,.72,.16,.93,.8,1.12v.35h-3.42v-.35c.65-.19,.8-.4,.8-1.12v-11.6c0-.72-.16-.93-.8-1.11v-.35h8.39c1.94,0,3.03,.24,3.91,.9,.96,.69,1.48,1.81,1.48,3.11,0,2.23-1.4,3.56-4.04,3.8l3.58,5.79c.29,.45,.42,.53,1.01,.61v.32h-3.5v-.35c.34-.08,.49-.16,.49-.32,0-.11-.1-.35-.28-.64l-3.26-5.28h-5.16v5.12Zm5.39-6.53c1.74,0,2.44-.11,3.06-.45,.62-.37,.98-1.09,.98-1.99,0-.85-.34-1.62-.93-2.04-.62-.45-1.42-.64-2.9-.64h-5.6v5.12h5.39Z"/>
          <path d="M443.36,129.69l-1.09,2.44c-.1,.27-.18,.53-.18,.69,0,.29,.21,.48,.65,.61v.35h-3.5v-.35c.65-.13,1.01-.5,1.48-1.62l4.69-10.46c.29-.66,.39-.96,.39-1.19,0-.35-.16-.48-.65-.56v-.35h4.12v.35c-.47,.11-.62,.24-.62,.56,0,.21,.1,.5,.52,1.38l4.48,10.06c.65,1.41,.98,1.75,1.63,1.83v.35h-3.71v-.35c.44-.11,.6-.24,.6-.48,0-.11-.05-.27-.31-.82l-1.06-2.44h-7.44Zm3.73-8.52l-3.14,7.12h6.22l-3.08-7.12Z"/>
        </g>
        <g>
          <path class="cls-1" d="M233.36,131.66c-.18,.53-.26,.88-.26,1.06,0,.35,.18,.48,.73,.64v.42h-4.17v-.42c.49-.08,.7-.27,.7-.61,0-.19-.1-.58-.29-1.09l-4.61-13.04c-.67-1.83-.8-2.02-1.61-2.12v-.42h4.04v.42c-.47,.05-.75,.29-.75,.64,0,.21,.03,.32,.34,1.22l4.3,12.51,4.27-12.51q.36-1.09,.36-1.27c0-.29-.23-.5-.73-.58v-.42h4.4v.42c-.54,.13-.73,.29-.73,.66,0,.16,.03,.21,.34,1.19l4.2,12.51,4.15-12.51c.23-.72,.31-1.01,.31-1.22,0-.4-.18-.53-.7-.64v-.42h3.78v.42c-.8,.13-1.04,.45-1.61,2.12l-4.4,13.04c-.18,.5-.26,.85-.26,1.01,0,.35,.23,.58,.73,.69v.42h-4.12v-.42c.52-.11,.73-.32,.73-.69q0-.16-.26-.9l-4.51-13.04-4.38,12.93Z"/>
          <path class="cls-1" d="M256,133.78h-3.42v-.35c.65-.19,.8-.4,.8-1.12v-11.6c0-.72-.16-.93-.8-1.11v-.35h3.42v.35c-.65,.19-.8,.4-.8,1.11v11.6c0,.72,.16,.93,.8,1.12v.35Z"/>
          <path class="cls-1" d="M261.36,132.32c0,.72,.16,.93,.8,1.12v.35h-3.11v-.35c.65-.19,.8-.4,.8-1.12v-11.6c0-.72-.16-.93-.8-1.11v-.35h4.59v.35c-.44,.16-.65,.35-.65,.66,0,.27,.16,.56,.49,.96l8.37,9.58v-10.09c0-.72-.16-.93-.8-1.11v-.35h3.11v.35c-.65,.19-.8,.4-.8,1.11v11.6c0,.72,.16,.93,.8,1.12v.35h-3.71v-.35c.52-.13,.67-.24,.67-.53,0-.24-.05-.35-.62-.98l-9.15-10.38v10.78Z"/>
          <path class="cls-1" d="M277.19,133.44c.65-.19,.8-.4,.8-1.12v-11.6c0-.72-.16-.93-.8-1.11v-.35h7.15c2.88,0,4.4,.45,5.67,1.67,1.35,1.3,2.2,3.42,2.2,5.58s-.85,4.3-2.2,5.6c-1.29,1.22-2.8,1.67-5.67,1.67h-7.15v-.35Zm7.05-1.06c2.49,0,3.78-.45,4.74-1.62,.85-1.01,1.35-2.52,1.35-4.25s-.49-3.21-1.35-4.25c-.96-1.17-2.25-1.59-4.74-1.59h-4.43v11.71h4.43Z"/>
          <path class="cls-1" d="M318.97,118.2c1.94,1.7,3.01,4.12,3.01,6.85,0,2.47-1.14,4.96-3.01,6.61-1.84,1.62-4.33,2.44-7.33,2.44s-5.47-.82-7.31-2.44c-1.92-1.7-3.01-4.14-3.01-6.74s1.11-5.1,3.01-6.72,4.35-2.44,7.28-2.44,5.49,.82,7.36,2.44Zm-15.57,6.72c0,2.07,.7,3.8,2.07,5.18,1.53,1.49,3.55,2.23,6.17,2.23s4.69-.74,6.19-2.23c1.35-1.35,2.07-3.11,2.07-5.07,0-4.57-3.24-7.49-8.29-7.49s-8.21,2.95-8.21,7.38Z"/>
          <path class="cls-1" d="M327.6,132.32c0,.72,.16,.93,.8,1.12v.35h-3.42v-.35c.65-.19,.8-.4,.8-1.12v-11.6c0-.72-.16-.93-.8-1.11v-.35h8.39c1.94,0,3.03,.24,3.91,.9,.96,.69,1.48,1.81,1.48,3.11,0,2.23-1.4,3.56-4.04,3.8l3.58,5.79c.29,.45,.42,.53,1.01,.61v.32h-3.5v-.35c.34-.08,.49-.16,.49-.32,0-.11-.1-.35-.28-.64l-3.26-5.28h-5.16v5.12Zm5.39-6.53c1.74,0,2.44-.11,3.06-.45,.62-.37,.98-1.09,.98-1.99,0-.85-.34-1.62-.93-2.04-.62-.45-1.42-.64-2.9-.64h-5.6v5.12h5.39Z"/>
          <path class="cls-1" d="M354.9,123.11l-.31-.19c.08-.24,.1-.4,.1-.5,0-.19-.18-.4-.52-.61-1.27-.85-3.03-1.35-4.77-1.35-3.81,0-6.53,2.5-6.53,5.97s2.75,6.16,6.45,6.16c1.74,0,3.5-.61,4.79-1.65,.54-.42,.8-.74,.8-.96,0-.11-.1-.42-.23-.64l.29-.21,2,2.6-.26,.24c-.34-.29-.52-.4-.65-.4-.08,0-.16,.05-.31,.16-2.05,1.65-4.04,2.36-6.61,2.36-4.77,0-8.16-3.16-8.16-7.62s3.47-7.54,8.42-7.54c2.1,0,3.86,.48,5.8,1.54,.18,.11,.26,.13,.36,.13,.21,0,.34-.08,.6-.45l.31,.19-1.58,2.76Z"/>
          <path class="cls-1" d="M361.66,127.01v5.31c0,.72,.16,.93,.8,1.12v.35h-3.42v-.35c.65-.19,.8-.4,.8-1.12v-11.6c0-.72-.16-.93-.8-1.11v-.35h3.42v.35c-.65,.19-.8,.4-.8,1.11v4.89h9.33v-4.89c0-.72-.16-.93-.8-1.11v-.35h3.42v.35c-.65,.19-.8,.4-.8,1.11v11.6c0,.72,.16,.93,.8,1.12v.35h-3.42v-.35c.65-.19,.8-.4,.8-1.12v-5.31h-9.33Z"/>
          <path class="cls-1" d="M379.27,132.37h8.76c.72,0,.93-.16,1.09-.82h.36v3.05h-.36c-.16-.66-.36-.82-1.09-.82h-11.38v-.35c.65-.19,.8-.4,.8-1.12v-11.6c0-.72-.16-.93-.8-1.11v-.35h11.3c.7,0,.91-.16,1.09-.82h.34v3.05h-.34c-.18-.66-.39-.82-1.09-.82h-8.68v4.91h5.54c.7,0,.91-.16,1.09-.82h.34v3.05h-.34c-.18-.66-.39-.82-1.09-.82h-5.54v5.39Z"/>
          <path class="cls-1" d="M404.3,122.84l-.31-.16c.05-.35,.05-.4,.05-.5,0-.27-.18-.42-.83-.77-1.06-.58-2.7-.96-4.22-.96-2.88,0-4.82,1.19-4.82,2.92,0,.85,.52,1.57,1.3,1.83,.8,.29,1.22,.32,4.27,.42,2.54,.11,3.63,.29,4.56,.85,.98,.56,1.61,1.73,1.61,3,0,2.79-2.64,4.62-6.71,4.62-1.63,0-3-.29-4.59-.96-.62-.24-1.58-.72-1.92-.9-.16-.11-.23-.13-.31-.13-.16,0-.23,.05-.57,.48l-.29-.21,1.61-2.76,.31,.19c-.03,.08-.05,.19-.08,.21-.03,.13-.05,.24-.05,.32,0,.27,.36,.58,1.29,1.06,1.45,.8,2.95,1.19,4.51,1.19,3.06,0,5.05-1.19,5.05-3.03,0-.82-.49-1.54-1.24-1.81-.7-.27-1.19-.32-3.58-.42-2.77-.11-3.6-.21-4.66-.61-1.4-.53-2.25-1.75-2.25-3.29,0-2.71,2.64-4.49,6.66-4.49,1.92,0,3.42,.35,5.34,1.22,.34,.16,.39,.19,.47,.19,.13,0,.29-.16,.47-.5l.31,.16-1.37,2.84Z"/>
          <path class="cls-1" d="M415.31,132.32c0,.72,.16,.93,.8,1.12v.35h-3.42v-.35c.65-.19,.8-.4,.8-1.12v-11.58h-4.61c-.7,0-.91,.16-1.09,.82h-.34v-3.05h.34c.18,.66,.39,.82,1.09,.82h11.06c.7,0,.91-.16,1.09-.82h.34v3.05h-.34c-.18-.66-.39-.82-1.09-.82h-4.64v11.58Z"/>
          <path class="cls-1" d="M426,132.32c0,.72,.16,.93,.8,1.12v.35h-3.42v-.35c.65-.19,.8-.4,.8-1.12v-11.6c0-.72-.16-.93-.8-1.11v-.35h8.39c1.94,0,3.03,.24,3.91,.9,.96,.69,1.48,1.81,1.48,3.11,0,2.23-1.4,3.56-4.04,3.8l3.58,5.79c.29,.45,.42,.53,1.01,.61v.32h-3.5v-.35c.34-.08,.49-.16,.49-.32,0-.11-.1-.35-.28-.64l-3.26-5.28h-5.16v5.12Zm5.39-6.53c1.74,0,2.44-.11,3.06-.45,.62-.37,.98-1.09,.98-1.99,0-.85-.34-1.62-.93-2.04-.62-.45-1.42-.64-2.9-.64h-5.6v5.12h5.39Z"/>
          <path class="cls-1" d="M443.36,129.69l-1.09,2.44c-.1,.27-.18,.53-.18,.69,0,.29,.21,.48,.65,.61v.35h-3.5v-.35c.65-.13,1.01-.5,1.48-1.62l4.69-10.46c.29-.66,.39-.96,.39-1.19,0-.35-.16-.48-.65-.56v-.35h4.12v.35c-.47,.11-.62,.24-.62,.56,0,.21,.1,.5,.52,1.38l4.48,10.06c.65,1.41,.98,1.75,1.63,1.83v.35h-3.71v-.35c.44-.11,.6-.24,.6-.48,0-.11-.05-.27-.31-.82l-1.06-2.44h-7.44Zm3.73-8.52l-3.14,7.12h6.22l-3.08-7.12Z"/>
        </g>
      </g>
    </g>
  </g>
</svg>