<?xml version="1.0" encoding="UTF-8"?>
<svg id="_レイヤー_2" data-name="レイヤー_2" xmlns="http://www.w3.org/2000/svg" viewBox="0 0 178.53 99.11">
  <defs>
    <style>
      .cls-1 {
        fill: #fbc43b;
      }
    </style>
  </defs>
  <g id="_レイヤー_1-2" data-name="レイヤー_1">
    <g>
      <path class="cls-1" d="M49.29,79.06c1.94-.19,2.92.88,2.92,3.21,0,1.28-.67,2.46-2.02,3.53-1.35,1.07-2.67,1.61-3.96,1.61-1.65,0-3.28-.5-4.9-1.5-1.62-1-2.43-2.26-2.43-3.78,0-2.76.92-5.41,2.77-7.96,1.84-2.54,4.29-3.82,7.33-3.82s5.56,1.47,8,4.42c2.44,2.95,3.67,6.47,3.67,10.56,0,3-1.86,6.04-5.57,9.13-3.72,3.09-7.22,4.64-10.51,4.64-1.94,0-6.2-.86-12.75-2.57-6.56-1.71-12.33-2.57-17.32-2.57-4.44,0-7.32.33-8.64,1-1.32.67-2.16,1.67-2.51,3-2.24-2.47-3.37-5.26-3.37-8.35,0-2.66,1.31-6.53,3.93-11.59,2.62-5.07,7.02-10.1,13.2-15.09,11.87-9.61,19.56-17.35,23.07-23.23,3.52-5.88,5.27-11.5,5.27-16.88,0-4.8-1.58-9.37-4.75-13.7-3.17-4.33-7.04-6.49-11.63-6.49s-8.76,1.67-11.93,5.02c-3.17,3.34-4.75,6.77-4.75,10.28,0,3.23,1,5.95,2.99,8.18,1.99,2.23,4.11,3.34,6.36,3.34,1.94,0,3.5-.71,4.67-2.13,1.17-1.42,1.76-3.03,1.76-4.82,0-.9-.3-1.95-.9-3.16-.6-1.21-1.17-1.81-1.72-1.81-.75,0-1.55.41-2.39,1.24-.85.83-1.27,1.73-1.27,2.72,0,.61.45,1.41,1.35,2.4-1.05.61-1.92.92-2.62.92-.8,0-1.56-.32-2.28-.96-.72-.64-1.08-1.33-1.08-2.09,0-1.89.64-3.48,1.91-4.78,1.27-1.3,2.63-1.95,4.08-1.95,6.43,0,9.65,2.17,9.65,6.49,0,2.24-1.4,4.59-4.19,7.06-2.79,2.47-6.23,3.71-10.32,3.71-2.94,0-5.77-1.36-8.49-4.07-2.72-2.71-4.08-5.4-4.08-8.06,0-5.28,2.85-9.97,8.56-14.06C20.11,2.05,26.03,0,32.16,0s11.8,2.53,16.57,7.6c4.76,5.07,7.14,10.05,7.14,14.95,0,3.81-1.41,8.4-4.23,13.77-2.82,5.38-6.05,9.3-9.69,11.77-17.65,12.13-28.4,20.94-32.24,26.44-3.84,5.5-5.76,10.29-5.76,14.38,3.39-2.57,7.73-3.85,13.01-3.85,4.39,0,10.89,2.28,19.52,6.85,4.89,2.57,8.03,3.85,9.42,3.85,3.14,0,5.82-1.22,8.04-3.67,2.22-2.45,3.33-5.41,3.33-8.88,0-2.19-1-4.17-2.99-5.96-1.99-1.78-4.21-2.68-6.66-2.68-3.89,0-5.83,1.71-5.83,5.14,0,1,.4,2,1.2,3,.8,1,1.67,1.5,2.62,1.5,2.44,0,3.67-1.71,3.67-5.14Z"/>
      <path class="cls-1" d="M86.6,62.18c3.71-9.98,9.23-14.97,16.58-14.97,5.21,0,9.9,2.09,14.06,6.28,4.16,4.19,6.24,9.1,6.24,14.74,0,6.17-1.92,12.11-5.77,17.82-3.85,5.71-7.91,8.56-12.17,8.56-1.85,0-3.66-.79-5.43-2.35s-2.65-3.22-2.65-4.96c0-1.4.75-2.65,2.26-3.75s3.04-1.65,4.62-1.65c3.67,0,5.51,1.08,5.51,3.25s-1.33,3.1-3.99,3.1c-1.23,0-1.94-.25-2.15-.75l.43-.5c.46.13.87.2,1.23.2.71,0,1.07-.61,1.07-1.83,0-1.35-.69-2.03-2.07-2.03-.74,0-1.42.52-2.02,1.57s-.9,2.1-.9,3.16c0,3.19,1.5,4.78,4.51,4.78,6.82,0,10.23-8.68,10.23-26.03,0-4.21-1.33-8.15-3.99-11.84s-5.74-5.53-9.24-5.53c-2.94,0-5.62,1.11-8.05,3.33-2.43,2.22-4.35,4.83-5.75,7.82-1.4,2.99-2.1,4.69-2.1,5.09l-2.05,26.36,5.67-1.35.63,2.25c-3.71.87-6.45,1.3-8.24,1.3s-4.27-.1-7.56-.3l.47-2.25,6.98.55c.07-1.3.1-2.86.1-4.66,0-13.63-1.33-26.58-3.99-38.84l-5.93.95-.63-1.85c4.86-.57,9.88-2.04,15.06-4.4l-1,18.72Z"/>
      <path class="cls-1" d="M178.53,19.2l-3.57.75c-1.26,4.04-2.81,13.39-4.64,28.05-1.84,14.66-2.75,26.23-2.75,34.71,0,5.34,1.5,8.67,4.51,9.97l-1.52,2c-2.2-.63-3.8-2.62-4.78-5.96-.98-3.34-1.47-12.3-1.47-26.88-3.15-5.31-6.61-7.96-10.39-7.96-3.36,0-6.19,1.78-8.5,5.33-2.31,3.55-3.46,7.4-3.46,11.54,0,5.84,1.06,10.57,3.17,14.19,2.12,3.62,5.12,5.43,9,5.43,1.71,0,3.32-.7,4.83-2.1,1.5-1.4,2.26-2.97,2.26-4.71,0-1.54-.73-2.89-2.2-4.05-1.47-1.17-3.06-1.75-4.78-1.75-.52,0-1.25.32-2.18.95s-1.39,1.33-1.39,2.1c0,1.44.89,2.15,2.68,2.15.52,0,.94-.31,1.26-.93.32-.62.47-1.26.47-1.93,1.64,0,2.47.75,2.47,2.25,0,.97-.45,1.79-1.34,2.48-.89.68-1.72,1.03-2.49,1.03-1.05,0-2.11-.47-3.17-1.4-1.07-.93-1.6-2.08-1.6-3.45,0-2,.68-3.65,2.05-4.93,1.36-1.28,2.94-1.93,4.72-1.93,2.2,0,3.98.87,5.33,2.6,1.35,1.74,2.02,4,2.02,6.81,0,2.07-.95,3.99-2.86,5.76-1.91,1.77-3.93,2.65-6.06,2.65-5.77,0-10.5-1.96-14.17-5.88-3.67-3.92-5.51-8.62-5.51-14.09s2.13-9.97,6.4-14.09c4.27-4.12,8.62-6.18,13.07-6.18,1.68,0,3.49.62,5.43,1.85,1.94,1.24,3.66,2.97,5.17,5.21l1.94-38.04h-5.35v-1.85c4.79,0,10.56-.47,17.32-1.4l.11,1.7Z"/>
    </g>
  </g>
</svg>