<?xml version="1.0" encoding="UTF-8"?>
<svg id="_レイヤー_2" data-name="レイヤー_2" xmlns="http://www.w3.org/2000/svg" viewBox="0 0 219.96 64.98">
  <defs>
    <style>
      .cls-1 {
        fill: #fbc43b;
      }
    </style>
  </defs>
  <g id="_レイヤー_1-2" data-name="レイヤー_1">
    <g>
      <path class="cls-1" d="M18.3,6.61c5.32,0,9.75,1.32,13.31,3.95s5.33,5.74,5.33,9.3c0,4.43-1.42,8.24-4.25,11.43-2.83,3.19-6.05,4.78-9.63,4.78-1.15,0-2.19-.47-3.11-1.41-.92-.94-1.38-1.99-1.38-3.14,0-.71.6-1.39,1.81-2.04,1.21-.65,2.29-.98,3.24-.98s1.5.66,1.5,1.97c0,.37-.41.91-1.23,1.61-.09-.13-.32-.51-.68-1.14-.37-.63-.78-.95-1.25-.95-1,0-1.5.79-1.5,2.38,0,.79.3,1.44.91,1.95.61.51,1.36.76,2.24.76,2.33,0,4.37-1.26,6.13-3.78s2.64-5.5,2.64-8.93c0-4.03-1.18-7.34-3.55-9.95-2.37-2.61-5.92-4.03-10.66-4.25-.46,4.83-.7,12.31-.7,22.46,0,2.64.27,6.24.8,10.81s.83,7.79.9,9.65l8.3.7-.46,1.96c-2.44-.42-5.68-.76-9.73-1.01-4.05-.25-7.23-.35-9.54-.28l-.2-1.96c1.97-.02,4.03.06,6.16.23,2.14.18,3.39.23,3.77.17-.13-1.97-.5-5.07-1.1-9.3-1.4-9.83-2.09-18.44-2.09-25.81,0-4.1.04-6.66.13-7.67-3.37.13-6.3.91-8.79,2.33-2.49,1.42-3.74,3.16-3.74,5.21,0,.98.43,1.76,1.28,2.34s1.84.88,2.95.88c2.73,0,4.1-.5,4.1-1.5,0-.27-.14-.49-.43-.68-.29-.19-.59-.28-.91-.28-.75,0-1.13.41-1.13,1.23-.66-.11-1-.51-1-1.2,0-1.06.64-1.59,1.93-1.59.6,0,1.17.23,1.71.7.54.47.81.93.81,1.4,0,1.13-.52,2.09-1.56,2.89-1.04.8-2.31,1.2-3.82,1.2-1.62,0-3-.48-4.14-1.45-1.14-.96-1.71-2.13-1.71-3.5,0-1.77,1.03-3.58,3.09-5.43,2.06-1.85,5.86-3.15,11.39-3.9,0-.88.02-3.13.07-6.74,2.97.24,4.65.37,5.05.37-.84,3.48-1.27,5.56-1.3,6.25Z"/>
      <path class="cls-1" d="M46.78,29.6c.91-3.06,2.19-5.39,3.84-7.01,1.65-1.62,3.33-2.42,5.03-2.42s3.04.67,4.22,2.01c1.17,1.34,1.76,2.97,1.76,4.9,0,2.26-.67,4.1-1.99,5.51-1.33,1.42-3.04,2.13-5.15,2.13-1.08,0-2-.42-2.76-1.26s-1.13-1.85-1.13-3.02c0-.58.49-1.29,1.48-2.14s1.79-1.28,2.41-1.28c.89,0,1.65.21,2.29.63.64.42.96,1.01.96,1.76,0,.84-.74,1.43-2.23,1.76.27-.66.4-1.21.4-1.63,0-.86-.3-1.29-.9-1.29-.51,0-.94.31-1.3.93s-.53,1.24-.53,1.86c0,.58.25,1.14.75,1.69.5.55,1.02.83,1.58.83,1.51,0,2.7-.54,3.57-1.61s1.31-2.42,1.31-4.04c0-1.15-.52-2.14-1.56-2.97-1.04-.83-2.23-1.25-3.55-1.25s-2.62.36-3.75,1.08c-1.13.72-2.18,2-3.14,3.84-.96,1.84-1.45,2.99-1.45,3.46,0,.35.42,6.57,1.26,18.64,2.7-.82,5.16-1.93,7.38-3.32l.4,1.63c-2.48,1.24-4.78,2.21-6.91,2.92-2.13.71-4.84,1.27-8.14,1.69v-1.69c1.95,0,3.83-.25,5.65-.76,0-2.35-.53-6.4-1.58-12.16s-2.18-10.61-3.37-14.55l-4.72,1.69-.33-1.1c4.3-1.11,7.72-2.83,10.27-5.18-.13,1.88-.2,3.18-.2,3.89,0,1.95.04,3.9.13,5.85Z"/>
      <path class="cls-1" d="M80,29.67c-.31.51-.7.76-1.16.76-.29,0-.55-.14-.8-.42-.24-.28-.37-.64-.37-1.08,0-.53.24-.97.73-1.33.49-.35,1.02-.53,1.59-.53.64,0,1.25.27,1.81.81.56.54.85,1.11.85,1.71,0,1.42-.4,2.54-1.2,3.37-.8.83-1.83,1.25-3.09,1.25-.91,0-1.69-.47-2.34-1.41s-.98-2.1-.98-3.47c0-1.59.7-3.06,2.1-4.38,1.4-1.33,2.83-1.99,4.29-1.99,3,0,5.74,1.33,8.22,3.99,2.49,2.66,3.73,5.66,3.73,9,0,4.14-1.42,7.87-4.27,11.2-2.85,3.32-5.9,4.98-9.16,4.98-3.7,0-7.04-1.5-10-4.5s-4.44-6.54-4.44-10.61c0-3.43,1.36-6.7,4.08-9.8,2.72-3.1,5.93-5.07,9.64-5.91l.4.83c-2.84.51-5.19,2.15-7.05,4.92s-2.78,5.78-2.78,9.04c0,4.45.93,8.07,2.78,10.85,1.85,2.78,4.29,4.17,7.3,4.17,2.31,0,4.43-1.41,6.37-4.22,1.94-2.81,2.91-6.1,2.91-9.87s-.84-6.61-2.53-9.05c-1.69-2.45-3.74-3.67-6.16-3.67-1.31,0-2.4.52-3.26,1.54-.87,1.03-1.3,2.15-1.3,3.37,0,.78.3,1.45.9,2.01.6.57,1.17.85,1.7.85.71,0,1.42-.27,2.14-.81.71-.54,1.07-1.07,1.07-1.58,0-1.08-.62-1.63-1.85-1.63-.52,0-.77.28-.77.83,0,.24.3.51.9.8Z"/>
      <path class="cls-1" d="M106.54,50.56c2.28-1.13,3.87-1.95,4.75-2.47s2.31-1.16,4.27-1.91,3.8-1.13,5.53-1.13c1.64,0,2.97.66,3.99,1.98,1.02,1.32,1.53,2.97,1.53,4.97,0,3.32-1.61,6.32-4.83,8.99s-7.35,4-12.38,4c-3.08,0-5.74-.8-7.99-2.39s-3.37-3.5-3.37-5.71c0-2.75,1.93-5.13,5.78-7.14l.4.7c-1.73,1.26-2.59,3.1-2.59,5.51,0,2.17.71,4.06,2.14,5.66s3.35,2.41,5.76,2.41c4.36,0,7.9-1.22,10.61-3.65,2.71-2.44,4.07-4.88,4.07-7.34,0-1.11-.37-2.02-1.11-2.74-.74-.72-1.7-1.08-2.87-1.08-1.73,0-3.38.22-4.97.67-1.58.44-3.34,1.15-5.27,2.11s-3.55,1.9-4.88,2.81l-.9-.53c.6-1.11,1.04-2.98,1.31-5.61.28-2.64.5-4.63.68-5.98-2.55-.62-4.59-1.84-6.13-3.67-1.54-1.83-2.31-3.92-2.31-6.26,0-3.54,1.23-6.62,3.69-9.22,2.46-2.6,5.15-3.9,8.07-3.9,1.86,0,3.4.45,4.62,1.36-1.04-1.53-1.56-3.09-1.56-4.68,0-1.33.5-2.45,1.51-3.36,1.01-.91,2.28-1.36,3.8-1.36,1.15,0,2.12.33,2.91,1,.79.66,1.18,1.41,1.18,2.23,0,.71-.3,1.35-.91,1.93-.6.58-1.33.86-2.19.86-.5,0-.89-.39-1.15-1.16.55.13.92.2,1.1.2.67,0,1-.56,1-1.69,0-.69-.17-1.27-.5-1.74-.33-.48-.78-.71-1.33-.71-1.04,0-1.84.41-2.41,1.23-.56.82-.85,1.91-.85,3.26,0,2.26.23,3.83.7,4.72l-.96.6c-1.13-1.04-2.71-1.56-4.75-1.56-2.48,0-4.51,1.08-6.08,3.24-1.57,2.16-2.36,4.71-2.36,7.66,0,3.19.61,5.69,1.83,7.49s2.72,2.71,4.52,2.71c2.17,0,4.04-1.09,5.6-3.27,1.56-2.18,2.34-4.63,2.34-7.36,0-1.82-.57-3.47-1.71-4.97-1.14-1.49-2.47-2.24-4-2.24-.64,0-1.23.3-1.78.9-.54.6-.81,1.27-.81,2.03,0,.93.17,1.72.5,2.38s.79.98,1.36.98c.24,0,.54-.16.9-.49s.53-.75.53-1.26-.17-.81-.5-.81c-.42,0-.8.18-1.13.53,0-.54.13-.99.4-1.34.27-.35.55-.52.86-.52,1.33,0,1.99.61,1.99,1.83,0,.69-.35,1.32-1.06,1.91-.71.59-1.44.88-2.19.88-1.11,0-2.02-.37-2.74-1.1-.72-.73-1.08-1.66-1.08-2.79,0-.73.5-1.54,1.51-2.44,1.01-.9,2.07-1.35,3.17-1.35,2.35,0,4.41.81,6.18,2.44,1.77,1.63,2.66,3.6,2.66,5.93,0,2.97-1.22,5.57-3.65,7.81-2.44,2.24-4.96,3.36-7.57,3.36-.31,3.72-.6,6.3-.86,7.74Z"/>
      <path class="cls-1" d="M134.61,29.6c.91-3.06,2.19-5.39,3.84-7.01,1.65-1.62,3.33-2.42,5.03-2.42s3.04.67,4.22,2.01c1.17,1.34,1.76,2.97,1.76,4.9,0,2.26-.67,4.1-1.99,5.51-1.33,1.42-3.04,2.13-5.15,2.13-1.08,0-2-.42-2.76-1.26s-1.13-1.85-1.13-3.02c0-.58.49-1.29,1.48-2.14s1.79-1.28,2.41-1.28c.89,0,1.65.21,2.29.63.64.42.96,1.01.96,1.76,0,.84-.74,1.43-2.23,1.76.27-.66.4-1.21.4-1.63,0-.86-.3-1.29-.9-1.29-.51,0-.94.31-1.3.93s-.53,1.24-.53,1.86c0,.58.25,1.14.75,1.69.5.55,1.02.83,1.58.83,1.51,0,2.7-.54,3.57-1.61s1.31-2.42,1.31-4.04c0-1.15-.52-2.14-1.56-2.97-1.04-.83-2.23-1.25-3.55-1.25s-2.62.36-3.75,1.08c-1.13.72-2.18,2-3.14,3.84-.96,1.84-1.45,2.99-1.45,3.46,0,.35.42,6.57,1.26,18.64,2.7-.82,5.16-1.93,7.38-3.32l.4,1.63c-2.48,1.24-4.78,2.21-6.91,2.92-2.13.71-4.84,1.27-8.14,1.69v-1.69c1.95,0,3.83-.25,5.65-.76,0-2.35-.53-6.4-1.58-12.16s-2.18-10.61-3.37-14.55l-4.72,1.69-.33-1.1c4.3-1.11,7.72-2.83,10.27-5.18-.13,1.88-.2,3.18-.2,3.89,0,1.95.04,3.9.13,5.85Z"/>
      <path class="cls-1" d="M161.59,30.23c-.16.91-.68,1.36-1.56,1.36-.49,0-.89-.17-1.2-.51-.31-.34-.47-.79-.47-1.35,0-.64.28-1.25.85-1.81s1.17-.85,1.81-.85c2.99,0,4.48.86,4.48,2.59,0,1.44-.76,2.76-2.29,3.97s-2.85,1.81-3.95,1.81c-1.31,0-2.41-.37-3.32-1.11s-1.36-1.73-1.36-2.97c0-2.57,1.21-5.18,3.62-7.84,2.41-2.66,4.93-3.99,7.54-3.99,2.15,0,3.95.92,5.42,2.77,1.46,1.85,2.19,4.12,2.19,6.83,0,1.93-.27,3.58-.81,4.95s-1.37,2.99-2.47,4.85c-2.83,4.7-4.25,9-4.25,12.92,0,.44.02.9.07,1.36h-1.36l.07-4.42c-2.77,1.82-4.76,2.72-5.98,2.72-1.51,0-2.75-.46-3.72-1.38s-1.46-2.12-1.46-3.6c0-1.4.72-2.63,2.18-3.7,1.45-1.07,3.06-1.61,4.83-1.61,1.26,0,3.28-.13,6.05-.4,1.64-3.57,2.46-6.74,2.46-9.54,0-6.42-1.47-9.63-4.42-9.63-2.7,0-4.64.87-5.81,2.6-1.17,1.73-1.76,4.13-1.76,7.17,0,.84.25,1.56.75,2.15.5.6,1.11.89,1.84.89.91,0,1.77-.42,2.59-1.26.82-.84,1.23-1.76,1.23-2.76,0-.55-.25-1.04-.76-1.45-.51-.41-1.08-.61-1.69-.61-.27,0-.5.13-.71.41-.21.27-.32.55-.32.84,0,.56.23.84.7.84.38,0,.72-.09,1.03-.27ZM166.01,41.99c-1.86.11-3.36.26-4.5.45s-2.06.71-2.76,1.56c-.7.85-1.05,1.74-1.05,2.67s.24,1.62.71,2.19c.48.58,1.1.86,1.88.86,1.35,0,2.87-.85,4.55-2.56l1.16-5.18Z"/>
      <path class="cls-1" d="M201.59,27.84c.8-2.17,1.96-3.99,3.5-5.46,1.54-1.47,3.11-2.21,4.7-2.21,3.26,0,5.76,1.15,7.53,3.46,1.76,2.3,2.64,5.5,2.64,9.6,0,5.21-.95,9.69-2.86,13.46-1.91,3.77-4.06,5.65-6.48,5.65-1.26,0-2.28-.42-3.06-1.26-.78-.84-1.16-1.8-1.16-2.89,0-1.02.33-1.93.98-2.72.65-.8,1.43-1.2,2.34-1.2,1.68,0,2.53.83,2.53,2.49,0,.38-.19.83-.56,1.35-.38.52-.82.89-1.33,1.11l-.57-.46c.64-.46.96-.96.96-1.5s-.41-.83-1.23-.83c-1.17,0-1.76.81-1.76,2.42,0,.69.29,1.24.86,1.64.58.41,1.33.61,2.26.61,1.62,0,2.87-1.34,3.77-4.02.9-2.68,1.35-6.58,1.35-11.69,0-3.63-.72-6.63-2.16-8.99-1.44-2.36-3.44-3.54-6.01-3.54-1.59,0-2.98.92-4.15,2.76-1.17,1.84-1.76,3.01-1.76,3.52l.17,1.53c.11,1.06.17,1.98.17,2.76,0,4.58-.71,8.36-2.14,11.33s-3.1,4.45-5,4.45c-.86,0-1.67-.3-2.41-.91-.74-.61-1.11-1.39-1.11-2.34,0-1.06.27-1.93.81-2.61.54-.67,1.31-1.01,2.31-1.01.69,0,1.25.19,1.69.58.44.39.66.8.66,1.25,0,.58-.16,1.11-.46,1.59-.31.49-.74.73-1.3.73l-.4-.46c.53-.2.8-.45.8-.76,0-.44-.48-.66-1.43-.66-.27,0-.53.14-.8.43-.27.29-.4.64-.4,1.06,0,.6.21,1.1.63,1.5.42.4.95.6,1.59.6,1.13,0,2-1.01,2.62-3.04.62-2.03.93-5.84.93-11.44,0-2.24-.71-4.36-2.13-6.38-1.42-2.01-3.09-3.02-5.02-3.02-1,0-1.98.29-2.96.88-.98.59-1.83,1.45-2.58,2.57-.74,1.13-1.12,2.31-1.15,3.55l-.2,10.66c-.09,5.29-.13,8.32-.13,9.07l4.42-.2v1.63c-4.1,0-7.41.37-9.93,1.1l-.43-1.43,4.38-.9c0-10.14-1.21-19.5-3.62-28.07l-4.42.46-.07-1.43c3.68-.09,7.25-.67,10.73-1.76-.31.84-.58,3.44-.8,7.81.49-1.44,1.58-2.83,3.27-4.17,1.69-1.34,3.39-2.01,5.1-2.01,1.9,0,3.62.51,5.13,1.54,1.52,1.03,2.55,2.44,3.11,4.24Z"/>
    </g>
  </g>
</svg>