<?xml version="1.0" encoding="UTF-8"?>
<svg id="_レイヤー_2" data-name="レイヤー_2" xmlns="http://www.w3.org/2000/svg" viewBox="0 0 360.41 617.27">
  <defs>
    <style>
      .cls-1 {
        fill: #fbc43b;
      }

      .cls-2 {
        opacity: .15;
      }
    </style>
  </defs>
  <g id="_レイヤー_1-2" data-name="レイヤー_1">
    <g class="cls-2">
      <path class="cls-1" d="M292.86,492.4c11.55-1.18,17.33,5.49,17.33,20,0,8-4,15.33-12,22-8,6.67-15.85,10-23.55,10-9.78,0-19.48-3.11-29.11-9.33-9.63-6.22-14.44-14.07-14.44-23.55,0-17.18,5.48-33.7,16.44-49.55,10.96-15.85,25.48-23.78,43.55-23.78s33.03,9.19,47.55,27.55c14.51,18.37,21.78,40.29,21.78,65.77,0,18.67-11.04,37.63-33.11,56.88-22.07,19.26-42.88,28.89-62.44,28.89-11.55,0-36.82-5.33-75.77-16-38.96-10.67-73.26-16-102.88-16-26.37,0-43.48,2.08-51.33,6.22-7.85,4.15-12.82,10.37-14.89,18.67-13.33-15.4-20-32.73-20-52,0-16.59,7.78-40.66,23.33-72.21,15.55-31.55,41.7-62.88,78.44-93.99,70.51-59.84,116.21-108.06,137.1-144.65,20.89-36.59,31.33-71.62,31.33-105.1,0-29.92-9.41-58.36-28.22-85.33-18.82-26.96-41.85-40.44-69.1-40.44s-52.07,10.42-70.88,31.25c-18.82,20.83-28.22,42.18-28.22,64.05,0,20.1,5.92,37.08,17.78,50.97,11.85,13.89,24.44,20.83,37.77,20.83,11.55,0,20.81-4.42,27.77-13.25,6.96-8.83,10.44-18.85,10.44-30.05,0-5.59-1.78-12.14-5.33-19.65s-6.96-11.27-10.22-11.27c-4.44,0-9.19,2.57-14.22,7.7-5.04,5.14-7.55,10.78-7.55,16.94,0,3.82,2.67,8.8,8,14.96-6.22,3.82-11.41,5.72-15.55,5.72-4.74,0-9.26-1.98-13.55-5.95-4.3-3.97-6.44-8.31-6.44-13.02,0-11.76,3.78-21.69,11.33-29.78,7.56-8.08,15.62-12.13,24.22-12.13,38.22,0,57.33,13.48,57.33,40.44,0,13.93-8.3,28.59-24.89,44-16.6,15.41-37.04,23.11-61.33,23.11-17.48,0-34.3-8.44-50.44-25.33-16.15-16.89-24.22-33.62-24.22-50.22,0-32.89,16.96-62.06,50.88-87.55C119.47,12.74,154.65,0,191.09,0s70.14,15.78,98.44,47.33c28.29,31.55,42.44,62.59,42.44,93.1,0,23.71-8.37,52.29-25.11,85.77-16.74,33.48-35.93,57.92-57.55,73.33-104.88,75.55-168.73,130.43-191.54,164.65-22.82,34.22-34.22,64.07-34.22,89.55,20.14-16,45.92-24,77.33-24,26.07,0,64.73,14.22,115.99,42.66,29.03,16,47.7,24,55.99,24,18.67,0,34.59-7.62,47.77-22.89,13.18-15.26,19.78-33.7,19.78-55.33,0-13.62-5.93-26-17.78-37.11-11.85-11.11-25.04-16.67-39.55-16.67-23.11,0-34.66,10.67-34.66,32,0,6.22,2.37,12.44,7.11,18.67,4.74,6.22,9.92,9.33,15.55,9.33,14.51,0,21.78-10.67,21.78-32Z"/>
    </g>
  </g>
</svg>